<svg width="251" height="251" viewBox="0 0 251 251" fill="none" xmlns="http://www.w3.org/2000/svg">
<path d="M117.35 101.411L135.278 43.6411L128.94 92.5372H189.426L121.515 204.817L172.041 101.411H117.35Z" fill="#0F172A" fill-opacity="0.2"/>
<path d="M116.625 101.411L134.553 43.6411L128.215 92.5372H188.701L120.79 204.817L171.316 101.411H116.625Z" fill="#0F172A" fill-opacity="0.2"/>
<path d="M216.352 43.6411H236.099L250.999 90.9073L233.251 115.355C230.173 111.733 231.621 115.355 233.251 115.355L201.535 160.095H245.753L239.369 206.266H120.884L188.489 93.4129H128.064L135.278 43.6411H216.352Z" fill="white"/>
<path d="M135.454 43.6411H76.7788L5.79509 137.811L0 177.29H71.7143L66.8185 207.171H119.699L131.47 134.189H66.9996L135.454 43.6411Z" fill="white"/>
</svg>
